
        <svg xmlns="http://www.w3.org/2000/svg" xmlns:xlink="http://www.w3.org/1999/xlink" version="1.1" width="2893.0500045169338" height="3258.459956585566" viewBox="0 0 2893.0500045169338 3258.459956585566">
			
			<g transform="scale(12.922997829278293) translate(10, 10)">
				<defs id="SvgjsDefs1087"/><g id="SvgjsG1088" featureKey="symbolContainer" transform="matrix(1.0850671986131235,0,0,1.0850671986131235,44.95937761640556,3.036196896632487)" fill="#000"><path xmlns="http://www.w3.org/2000/svg" d="M104.6 41.3a52.2 52.2 0 0 0-3.5-11.2A51.1 51.1 0 0 0 44.3 1a49.6 49.6 0 0 0-5.7 1.5 49.1 49.1 0 0 0-7.9 2.7A51.6 51.6 0 0 0 6.3 77a53.7 53.7 0 0 0 4.1 6.4 57 57 0 0 0 5 5.7 51.7 51.7 0 0 0 55.3 11.5l3.3-1.4 3-1.5a50.9 50.9 0 0 0 5.8-3.8l2.7-2.1 1.2-1.1 1.1-.9 2-1.8.7-.6.6-.7 1.8-2a48.5 48.5 0 0 0 5.9-8.3 50.4 50.4 0 0 0 5.6-14.7 51.6 51.6 0 0 0 .2-20.4zM87.1 88.6l-1.2 1.1-1.2 1.1-2.6 2.1a49.5 49.5 0 0 1-5.7 3.6l-3 1.5-3.2 1.3-4.9 1.6h-.5a50.9 50.9 0 0 1-20.3.1 51.8 51.8 0 0 1-11.1-3.6A50.5 50.5 0 0 1 22.9 91a52 52 0 0 1-9.1-9.4 50.3 50.3 0 0 1-3.7-5.7c-.6-1-1.1-2-1.6-3.1s-1-2.1-1.3-3.2a50.6 50.6 0 0 1 8.6-50.8l.8-.8.5-.6.6-.6 1.2-1.1 2.4-2.1A50.5 50.5 0 0 1 62.4 3.2a48.5 48.5 0 0 1 14.7 5.2 47 47 0 0 1 8.3 5.8l2 1.8.7.6.6.7 1.8 2a49.7 49.7 0 0 1 11.3 22.9 50.8 50.8 0 0 1-.1 20.2 51.6 51.6 0 0 1-3.6 11 50.2 50.2 0 0 1-6.6 10.5l-2.1 2.4zm-44.9 13a50.1 50.1 0 0 1-13.7-5 51.8 51.8 0 0 1-6.2-4 55.2 55.2 0 0 1-5.5-4.8 49.9 49.9 0 0 1-11-53.2c.4-1.1.9-2.1 1.3-3.1l.6-1.3a50.2 50.2 0 0 0-3.4 11 51.3 51.3 0 0 0 2.4 28.5c.4 1.1.9 2.2 1.4 3.2s1 2.1 1.6 3.1a50.6 50.6 0 0 0 3.7 5.8 51.5 51.5 0 0 0 9.2 9.5 50.9 50.9 0 0 0 10.7 6.5 51 51 0 0 0 28.7 3.9 50.3 50.3 0 0 1-19.8-.1zm61.9-39.9a50.2 50.2 0 0 1-5.5 14.7 48.4 48.4 0 0 1-5.8 8.3l-1.8 2-.6.7-.7.6-1.9 1.7h.2l2.3-2.4 2.1-2.5A51.3 51.3 0 0 0 98.9 74a51.4 51.4 0 0 0 3.2-31.6 49.6 49.6 0 0 0-2.5-8.2 49.4 49.4 0 0 0-3.1-6.5 48.7 48.7 0 0 0-5.9-8.3l-1.8-2-.6-.7-.7-.6-2-1.8A49.9 49.9 0 0 0 77.3 8a49.3 49.3 0 0 0-6.5-3.2 49.8 49.8 0 0 0-8.2-2.6A52.2 52.2 0 0 0 49.9 1a50.8 50.8 0 0 1 22.7 3.2l3.2 1.3 3.1 1.6a50.1 50.1 0 0 1 5.7 3.7l2.6 2.1 1.2 1.1 1.2 1.1 2.3 2.3 2.1 2.4a50.4 50.4 0 0 1 6.5 10.5 51.6 51.6 0 0 1 3.6 11 51.1 51.1 0 0 1 0 20.3z"/></g><g id="SvgjsG1089" featureKey="monogramFeature-0" transform="matrix(1.9213781697921017,0,0,1.9213781697921017,58.38870045492261,-32.967726743655895)" fill="#000"><path d="M3.6 59.88 c0 3 0.78 5.46 2.1 5.46 c1.74 0 3.66 -5.52 6.72 -11.1 c2.88 -5.28 4.14 -8.52 5.34 -8.52 c1.5 0 2.16 1.38 1.98 4.26 c-0.42 6.24 -3.12 13.92 -3.6 19.98 c-0.42 5.82 0.24 8.28 2.28 8.28 c1.98 0 8.28 -4.98 13.8 -16.02 s9.3 -26.58 9.3 -34.56 c0 -7.68 -0.66 -9.78 -1.92 -9.36 s-0.42 -1.2 0.66 -1.14 c1.02 0.12 2.46 2.1 2.46 10.44 c0 12.84 -4.26 25.74 -9.42 36 c-4.92 9.66 -10.5 15.66 -14.64 15.66 c-4.2 0 -4.56 -5.22 -4.08 -9.18 c0.78 -6.84 3.48 -15.42 3.84 -20.1 c0.12 -2.1 0.12 -2.94 -0.42 -2.94 c-0.9 0 -3.42 5.16 -4.86 8.16 c-1.62 3.24 -4.92 11.16 -7.14 11.16 c-2.1 0 -3.6 -2.16 -3.6 -6.48 c0 -4.92 1.62 -12.54 5.34 -20.94 c3 -6.66 6.36 -11.64 8.88 -13.86 c1.32 -1.08 0.36 1.32 -2.88 5.88 c-2.34 3.36 -3.36 5.64 -5.28 9.9 c-2.88 6.54 -4.86 14.34 -4.86 19.02 z"/></g><g id="SvgjsG1090" featureKey="nameFeature-0" transform="matrix(2.200271311983042,0,0,2.200271311983042,-0.8801097837985604,113.74088634563896)" fill="#000"><path d="M34.8 12 l4.56 0 l-8.68 28 l-4.56 0 l-6.24 -20.8 l-6.28 20.8 l-4.56 0 l-8.64 -28 l4.56 0 l6.48 21.96 l6.48 -21.96 l3.92 0 l6.48 21.92 z M59.028000000000006 25.36 c2.92 1.16 4.76 3.56 4.76 6.8 c0 4.56 -3.44 7.84 -9.2 7.84 l-13.88 0 l0 -28 l13.04 0 c5.24 0 8.88 3 8.92 7.36 c0.04 2.8 -1.36 4.84 -3.64 6 z M53.668 15.760000000000002 l-8.68 0 l0 8.2 l8.92 0 c2.76 0 4.56 -1.88 4.52 -4.12 c0 -2.36 -1.88 -4.08 -4.76 -4.08 z M54.508 36.2 c3.12 0 4.96 -2 4.96 -4.44 c0 -2.28 -1.72 -4.32 -4.92 -4.32 l-9.56 0 l0 8.76 l9.52 0 z M79.776 40.52 c-8.36 0 -14.6 -6.28 -14.6 -14.56 c0 -8.24 6.24 -14.48 14.56 -14.48 c7.08 0 11.84 4.16 13.32 8.76 l-4.2 1.04 c-1.16 -3.12 -4.48 -5.76 -9.12 -5.76 c-6.16 0 -10.16 4.76 -10.16 10.4 c0 5.68 4 10.52 10.16 10.52 c4.6 0 7.96 -2.52 9.08 -5.68 l4.2 1.08 c-1.48 4.56 -6.24 8.68 -13.24 8.68 z"/></g><g id="SvgjsG1091" featureKey="sloganFeature-0" transform="matrix(0.5216552696724248,0,0,0.5216552696724248,24.49566382298572,219.86701628552282)" fill="#000"><path d="M6.4258 20.18555 c-2.8809 0 -4.9902 -1.377 -5.459 -3.7207 l1.9824 -0.46875 c0.3125 1.6113 1.709 2.5391 3.5449 2.5391 c1.4746 0 2.8906 -0.60547 2.8613 -2.2656 c-0.019531 -1.6406 -1.7969 -2.0898 -3.6816 -2.6074 c-2.1387 -0.58594 -4.2773 -1.2598 -4.2773 -3.7988 c0 -2.5684 2.1191 -3.8574 4.6289 -3.8574 c2.4316 0 4.6191 1.0254 5.1367 3.3984 l-1.8848 0.47852 c-0.3418 -1.5332 -1.6211 -2.2168 -3.1641 -2.2168 c-1.3867 0 -2.7637 0.60547 -2.7637 2.1777 c0 1.4258 1.543 1.8457 3.291 2.3145 c2.1973 0.5957 4.7168 1.2793 4.7168 4.0527 c0 2.793 -2.3438 3.9746 -4.9316 3.9746 z M25.54916015625 20 l-1.1523 -3.2227 l-6.1719 0 l-1.1523 3.2227 l-2.0215 0 l5.0879 -13.809 l2.3438 0 l5.0879 13.809 l-2.0215 0 z M18.83056015625 15.0781 l4.9609 0 l-2.4805 -6.9629 z M39.8583984375 7.939 l-5.6055 0 l0 4.2871 l4.873 0 l0 1.748 l-4.873 0 l0 6.0254 l-1.9824 0 l0 -13.809 l7.5879 0 l0 1.748 z M52.29250546875 7.939 l-5.5273 0 l0 4.2969 l4.873 0 l0 1.7383 l-4.873 0 l0 4.2676 l5.5273 0 l0 1.7578 l-7.5098 0 l0 -13.809 l7.5098 0 l0 1.748 z M65.097675 20 l-3.5742 -6.2109 l-1.9336 0 l0 6.2109 l-1.9434 0 l0 -13.809 l4.6484 0 c2.8906 0 4.209 1.7676 4.209 3.9355 c0 1.9238 -1.1328 3.2617 -3.0273 3.584 l3.8965 6.2891 l-2.2754 0 z M59.589875 7.871 l0 4.4336 l2.4414 0 c1.7969 0 2.6074 -0.89844 2.6074 -2.207 c0 -1.2891 -0.81055 -2.2266 -2.6074 -2.2266 l-2.4414 0 z M83.8525578125 20.18555 c-2.8809 0 -4.9902 -1.377 -5.459 -3.7207 l1.9824 -0.46875 c0.3125 1.6113 1.709 2.5391 3.5449 2.5391 c1.4746 0 2.8906 -0.60547 2.8613 -2.2656 c-0.019531 -1.6406 -1.7969 -2.0898 -3.6816 -2.6074 c-2.1387 -0.58594 -4.2773 -1.2598 -4.2773 -3.7988 c0 -2.5684 2.1191 -3.8574 4.6289 -3.8574 c2.4316 0 4.6191 1.0254 5.1367 3.3984 l-1.8848 0.47852 c-0.3418 -1.5332 -1.6211 -2.2168 -3.1641 -2.2168 c-1.3867 0 -2.7637 0.60547 -2.7637 2.1777 c0 1.4258 1.543 1.8457 3.291 2.3145 c2.1973 0.5957 4.7168 1.2793 4.7168 4.0527 c0 2.793 -2.3438 3.9746 -4.9316 3.9746 z M99.36281796875 6.191000000000001 c2.5293 0 4.1602 1.9141 4.1602 4.2773 c0 2.3926 -1.6309 4.2383 -4.1602 4.2383 l-3.3789 0 l0 5.293 l-1.9434 0 l0 -13.809 l5.3223 0 z M99.06981796875 13.0273 c1.6211 0 2.5293 -1.0449 2.5293 -2.5879 c0 -1.4844 -0.9082 -2.5781 -2.5293 -2.5781 l-3.0859 0 l0 5.166 l3.0859 0 z M117.4803125 20 l-1.1523 -3.2227 l-6.1719 0 l-1.1523 3.2227 l-2.0215 0 l5.0879 -13.809 l2.3438 0 l5.0879 13.809 l-2.0215 0 z M110.7617125 15.0781 l4.9609 0 l-2.4805 -6.9629 z M130.14895078125 20.18555 c-3.916 0 -6.9043 -2.6855 -6.9043 -7.0996 c0 -4.3945 2.9883 -7.0801 6.9043 -7.0801 c2.793 0 5.1074 1.3867 6.1719 3.7598 l-1.7969 0.71289 c-0.80078 -1.6895 -2.4316 -2.6367 -4.375 -2.6367 c-2.7734 0 -4.9707 1.9141 -4.9707 5.2441 c0 3.3496 2.1973 5.2637 4.9707 5.2637 c1.9434 0 3.5742 -0.94727 4.375 -2.6367 l1.7969 0.72266 c-1.0645 2.3633 -3.3789 3.75 -6.1719 3.75 z M148.7939703125 7.939 l-5.5273 0 l0 4.2969 l4.873 0 l0 1.7383 l-4.873 0 l0 4.2676 l5.5273 0 l0 1.7578 l-7.5098 0 l0 -13.809 l7.5098 0 l0 1.748 z M155.15383984375 23.5352 l-1.3672 0 l1.2012 -6.1133 l1.9531 0 z M176.53568203125 12.773399999999999 c1.6309 0.41016 2.7246 1.5332 2.7246 3.457 c0 2.2168 -1.5039 3.7695 -3.9844 3.7695 l-5.4297 0 l0 -13.809 l4.2383 0 c2.5488 0 4.1602 1.4844 4.1602 3.6719 c0 1.3086 -0.5957 2.3828 -1.709 2.9102 z M176.42818203125 9.99 c0 -1.1914 -0.85938 -2.1191 -2.3535 -2.1191 l-2.3438 0 l0 4.2969 l2.6465 0 c1.25 0 2.0508 -0.97656 2.0508 -2.1777 z M174.94388203125 18.291 c1.5723 0 2.4219 -1.0547 2.4219 -2.2559 c0 -1.2695 -0.88867 -2.2852 -2.5391 -2.2852 l-3.0957 0 l0 4.541 l3.2129 0 z M191.9677984375 7.939 l-5.5273 0 l0 4.2969 l4.873 0 l0 1.7383 l-4.873 0 l0 4.2676 l5.5273 0 l0 1.7578 l-7.5098 0 l0 -13.809 l7.5098 0 l0 1.748 z M204.67526796875 6.191000000000001 l0 1.748 l-3.4961 0 l0 12.061 l-1.9238 0 l0 -12.061 l-3.5059 0 l0 -1.748 l8.9258 0 z M216.718725 6.191000000000001 l0 1.748 l-3.4961 0 l0 12.061 l-1.9238 0 l0 -12.061 l-3.5059 0 l0 -1.748 l8.9258 0 z M228.91848203125 7.939 l-5.5273 0 l0 4.2969 l4.873 0 l0 1.7383 l-4.873 0 l0 4.2676 l5.5273 0 l0 1.7578 l-7.5098 0 l0 -13.809 l7.5098 0 l0 1.748 z M241.7236515625 20 l-3.5742 -6.2109 l-1.9336 0 l0 6.2109 l-1.9434 0 l0 -13.809 l4.6484 0 c2.8906 0 4.209 1.7676 4.209 3.9355 c0 1.9238 -1.1328 3.2617 -3.0273 3.584 l3.8965 6.2891 l-2.2754 0 z M236.2158515625 7.871 l0 4.4336 l2.4414 0 c1.7969 0 2.6074 -0.89844 2.6074 -2.207 c0 -1.2891 -0.81055 -2.2266 -2.6074 -2.2266 l-2.4414 0 z M258.095734375 18.2422 l4.7168 0 l0 1.7578 l-6.6602 0 l0 -13.809 l1.9434 0 l0 12.051 z M267.51219765625 20 l0 -13.809 l1.9434 0 l0 13.809 l-1.9434 0 z M283.3154296875 7.939 l-5.6055 0 l0 4.2871 l4.873 0 l0 1.748 l-4.873 0 l0 6.0254 l-1.9824 0 l0 -13.809 l7.5879 0 l0 1.748 z M295.74953671875 7.939 l-5.5273 0 l0 4.2969 l4.873 0 l0 1.7383 l-4.873 0 l0 4.2676 l5.5273 0 l0 1.7578 l-7.5098 0 l0 -13.809 l7.5098 0 l0 1.748 z"/></g>
			</g>
		</svg>
	